<svg width="187" height="184" viewBox="0 0 187 184" fill="none" xmlns="http://www.w3.org/2000/svg">
<path d="M167.833 0.333344H56.3333C46.0846 0.333344 37.75 8.55584 37.75 18.6667V128.667C37.75 138.778 46.0846 147 56.3333 147H167.833C178.082 147 186.417 138.778 186.417 128.667V18.6667C186.417 8.55584 178.082 0.333344 167.833 0.333344ZM56.3333 128.667V18.6667H167.833L167.852 128.667H56.3333Z" fill="#343434"/>
<path d="M19.1667 55.3333H0.583344V165.333C0.583344 175.444 8.91797 183.667 19.1667 183.667H130.667V165.333H19.1667V55.3333ZM121.375 37H102.792V64.5H74.9167V82.8333H102.792V110.333H121.375V82.8333H149.25V64.5H121.375V37Z" fill="#343434"/>
</svg>
