<svg width="52" height="52" viewBox="0 0 52 52" fill="none" xmlns="http://www.w3.org/2000/svg">
<g clip-path="url(#clip0_7_12)">
<path d="M50.7 44.3C52.5 46.1 52.5 48.9 50.7 50.7C49.8 51.6 48.7 52 47.5 52C46.3 52 45.2 51.6 44.3 50.7L26 32.4L7.70001 50.7C6.80001 51.6 5.70001 52 4.50001 52C3.30001 52 2.20001 51.6 1.30001 50.7C-0.499988 48.9 -0.499988 46.1 1.30001 44.3L19.6 26L1.30001 7.70001C-0.499988 5.90001 -0.499988 3.10001 1.30001 1.30001C3.10001 -0.499988 5.90001 -0.499988 7.70001 1.30001L26 19.6L44.3 1.30001C46.1 -0.499988 48.9 -0.499988 50.7 1.30001C52.5 3.10001 52.5 5.90001 50.7 7.70001L32.4 26L50.7 44.3Z" fill="#F23E3E"/>
</g>
<defs>
<clipPath id="clip0_7_12">
<rect width="52" height="52" fill="white"/>
</clipPath>
</defs>
</svg>
